# xmcd CD database file
#
# Track frame offsets:
#	150
#	20387
#	36245
#	59737
#	81077
#	99382
#	121720
#	148920
#	160430
#	181440
#	195242
#
# Disc length: 3004 seconds
#
# Revision: 0
# Processed by: cddbd v1.5.1PL0 Copyright (c) Steve Scherf et al.
# Submitted via: CDex 1.51
#
DISCID=920bba0b
DTITLE=Motorworks - Brand-New Motor Works
DYEAR=2004
DGENRE=JPop
TTITLE0=Motor Works
TTITLE1=World One Sign
TTITLE2=ステレオ・ラヴ
TTITLE3=氷の空
TTITLE4=Missing Piece
TTITLE5=F・A・T・M・L
TTITLE6=Speeder
TTITLE7=(A Place Where) Love Goes Withered
TTITLE8=コスモゼロ
TTITLE9=Saturday Night
TTITLE10=The End
EXTD=YEAR: 2004
EXTT0=
EXTT1=
EXTT2=
EXTT3=
EXTT4=
EXTT5=
EXTT6=
EXTT7=
EXTT8=
EXTT9=
EXTT10=
PLAYORDER=
